<svg width="95" height="27" viewBox="0 0 95 27" fill="none" xmlns="http://www.w3.org/2000/svg">
<path d="M34.802 17.21H29.33L28.322 20H26.594L31.13 7.526H33.02L37.538 20H35.81L34.802 17.21ZM34.334 15.878L32.066 9.542L29.798 15.878H34.334ZM48.2629 10.136V20H46.6249V18.542C46.3129 19.046 45.8749 19.442 45.3109 19.73C44.7589 20.006 44.1469 20.144 43.4749 20.144C42.7069 20.144 42.0169 19.988 41.4049 19.676C40.7929 19.352 40.3069 18.872 39.9469 18.236C39.5989 17.6 39.4249 16.826 39.4249 15.914V10.136H41.0449V15.698C41.0449 16.67 41.2909 17.42 41.7829 17.948C42.2749 18.464 42.9469 18.722 43.7989 18.722C44.6749 18.722 45.3649 18.452 45.8689 17.912C46.3729 17.372 46.6249 16.586 46.6249 15.554V10.136H48.2629ZM53.0266 11.486V17.3C53.0266 17.78 53.1286 18.122 53.3326 18.326C53.5366 18.518 53.8906 18.614 54.3946 18.614H55.6006V20H54.1246C53.2126 20 52.5286 19.79 52.0726 19.37C51.6166 18.95 51.3886 18.26 51.3886 17.3V11.486H50.1106V10.136H51.3886V7.652H53.0266V10.136H55.6006V11.486H53.0266ZM62.4812 9.956C63.2252 9.956 63.8972 10.118 64.4972 10.442C65.0972 10.754 65.5652 11.228 65.9012 11.864C66.2492 12.5 66.4232 13.274 66.4232 14.186V20H64.8032V14.42C64.8032 13.436 64.5572 12.686 64.0652 12.17C63.5732 11.642 62.9012 11.378 62.0492 11.378C61.1852 11.378 60.4952 11.648 59.9792 12.188C59.4752 12.728 59.2232 13.514 59.2232 14.546V20H57.5852V6.68H59.2232V11.54C59.5472 11.036 59.9912 10.646 60.5552 10.37C61.1312 10.094 61.7732 9.956 62.4812 9.956ZM75.9389 12.71V14.096H68.7569V12.71H75.9389ZM83.027 11.486H80.957V20H79.319V11.486H78.041V10.136H79.319V9.434C79.319 8.33 79.601 7.526 80.165 7.022C80.741 6.506 81.659 6.248 82.919 6.248V7.616C82.199 7.616 81.689 7.76 81.389 8.048C81.101 8.324 80.957 8.786 80.957 9.434V10.136H83.027V11.486ZM93.9368 14.69C93.9368 15.002 93.9188 15.332 93.8828 15.68H85.9988C86.0588 16.652 86.3888 17.414 86.9888 17.966C87.6008 18.506 88.3388 18.776 89.2028 18.776C89.9108 18.776 90.4988 18.614 90.9668 18.29C91.4468 17.954 91.7828 17.51 91.9748 16.958H93.7388C93.4748 17.906 92.9468 18.68 92.1548 19.28C91.3628 19.868 90.3788 20.162 89.2028 20.162C88.2668 20.162 87.4268 19.952 86.6828 19.532C85.9508 19.112 85.3748 18.518 84.9548 17.75C84.5348 16.97 84.3248 16.07 84.3248 15.05C84.3248 14.03 84.5288 13.136 84.9368 12.368C85.3448 11.6 85.9148 11.012 86.6468 10.604C87.3908 10.184 88.2428 9.974 89.2028 9.974C90.1388 9.974 90.9668 10.178 91.6868 10.586C92.4068 10.994 92.9588 11.558 93.3428 12.278C93.7388 12.986 93.9368 13.79 93.9368 14.69ZM92.2448 14.348C92.2448 13.724 92.1068 13.19 91.8308 12.746C91.5548 12.29 91.1768 11.948 90.6968 11.72C90.2288 11.48 89.7068 11.36 89.1308 11.36C88.3028 11.36 87.5948 11.624 87.0068 12.152C86.4308 12.68 86.1008 13.412 86.0168 14.348H92.2448Z" fill="white"/>
<path d="M8.08482 5.00033C6.70982 4.98862 5.33482 5.28548 4.09375 5.89094C3.54464 6.16047 3.34822 6.76983 3.65625 7.25029C3.96429 7.73465 4.66071 7.90652 5.20982 7.637C6.98214 6.76983 9.13839 6.78936 10.8929 7.68778C12.6429 8.5862 13.7143 10.2229 13.7143 12.0002V13.0002C13.7143 13.5509 14.2277 14.0001 14.8571 14.0001C15.4866 14.0001 16 13.5509 16 13.0002V12.0002C16 11.9807 16 11.9611 15.9955 11.9455C15.9732 9.48462 14.4732 7.20732 12.0446 5.96125C10.8214 5.33236 9.45536 5.01205 8.08036 5.00033H8.08482ZM2.14286 7.83231C2.06696 7.83231 1.99107 7.84012 1.91964 7.85574C1.625 7.91433 1.36607 8.07449 1.20536 8.30105C0.419643 9.4104 0 10.6916 0 12.0002V17.0626C0 17.6134 0.513393 18.0626 1.14286 18.0626C1.77232 18.0626 2.28571 17.6134 2.28571 17.0626V12.0002C2.28571 11.0666 2.58482 10.1487 3.14732 9.35571C3.48214 8.88697 3.31696 8.2737 2.78125 7.98074C2.58929 7.87527 2.36607 7.82449 2.14286 7.83231ZM8 8.00027C5.48661 8.00027 3.42857 9.80101 3.42857 12.0002V13.0002C3.42857 13.5509 3.94196 14.0001 4.57143 14.0001C5.20089 14.0001 5.71429 13.5509 5.71429 13.0002V12.0002C5.71429 10.883 6.72321 10.0002 8 10.0002C9.27679 10.0002 10.2857 10.883 10.2857 12.0002V17.0001C10.2857 17.0001 10.2946 17.4415 10.4866 17.9415C10.6786 18.4415 11.058 19.0899 11.7634 19.7071C12.2098 20.0977 12.933 20.0977 13.3795 19.7071C13.8259 19.3164 13.8259 18.6836 13.3795 18.293C12.942 17.9102 12.75 17.5587 12.6563 17.3087C12.5625 17.0587 12.5714 17.0001 12.5714 17.0001V12.0002C12.5714 9.80101 10.5134 8.00027 8 8.00027ZM8 11.0002C7.37054 11.0002 6.85714 11.4494 6.85714 12.0002V17.0001C6.85714 17.0001 6.85714 17.5938 7.02232 18.3204C7.1875 19.0469 7.49554 19.9727 8.33482 20.707C8.78125 21.0977 9.50446 21.0977 9.95089 20.707C10.3973 20.3164 10.3973 19.6836 9.95089 19.293C9.64732 19.0274 9.38393 18.4532 9.26339 17.9298C9.14286 17.4063 9.14286 17.0001 9.14286 17.0001V12.0002C9.14286 11.4494 8.62946 11.0002 8 11.0002ZM4.57143 15.0001C3.94196 15.0001 3.42857 15.4493 3.42857 16.0001V19C3.42857 19.5508 3.94196 20 4.57143 20C5.20089 20 5.71429 19.5508 5.71429 19V16.0001C5.71429 15.4493 5.20089 15.0001 4.57143 15.0001ZM14.8571 15.0001C14.2277 15.0001 13.7143 15.4493 13.7143 16.0001C13.7143 16.5509 14.2277 17.0001 14.8571 17.0001C15.4866 17.0001 16 16.5509 16 16.0001C16 15.4493 15.4866 15.0001 14.8571 15.0001Z" fill="white"/>
</svg>
