<svg width="113" height="27" viewBox="0 0 113 27" fill="none" xmlns="http://www.w3.org/2000/svg">
<path d="M33.668 13.538C34.124 13.61 34.538 13.796 34.91 14.096C35.294 14.396 35.594 14.768 35.81 15.212C36.038 15.656 36.152 16.13 36.152 16.634C36.152 17.27 35.99 17.846 35.666 18.362C35.342 18.866 34.868 19.268 34.244 19.568C33.632 19.856 32.906 20 32.066 20H27.386V7.45399H31.886C32.738 7.45399 33.464 7.59799 34.064 7.88599C34.664 8.16199 35.114 8.53999 35.414 9.01999C35.714 9.49999 35.864 10.04 35.864 10.64C35.864 11.384 35.66 12.002 35.252 12.494C34.856 12.974 34.328 13.322 33.668 13.538ZM29.024 12.872H31.778C32.546 12.872 33.14 12.692 33.56 12.332C33.98 11.972 34.19 11.474 34.19 10.838C34.19 10.202 33.98 9.70399 33.56 9.34399C33.14 8.98399 32.534 8.80399 31.742 8.80399H29.024V12.872ZM31.922 18.65C32.738 18.65 33.374 18.458 33.83 18.074C34.286 17.69 34.514 17.156 34.514 16.472C34.514 15.776 34.274 15.23 33.794 14.834C33.314 14.426 32.672 14.222 31.868 14.222H29.024V18.65H31.922ZM37.813 15.032C37.813 14.024 38.017 13.142 38.425 12.386C38.8057 11.6473 39.3855 11.03 40.099 10.604C40.819 10.184 41.617 9.97399 42.493 9.97399C43.357 9.97399 44.107 10.16 44.743 10.532C45.379 10.904 45.853 11.372 46.165 11.936V10.136H47.821V20H46.165V18.164C45.841 18.74 45.355 19.22 44.707 19.604C44.071 19.976 43.327 20.162 42.475 20.162C41.599 20.162 40.807 19.946 40.099 19.514C39.391 19.082 38.833 18.476 38.425 17.696C38.017 16.916 37.813 16.028 37.813 15.032ZM46.165 15.05C46.165 14.306 46.015 13.658 45.715 13.106C45.437 12.5768 45.0119 12.1392 44.491 11.846C43.985 11.5448 43.4058 11.3891 42.817 11.396C42.205 11.396 41.647 11.54 41.143 11.828C40.6297 12.1252 40.2115 12.5622 39.937 13.088C39.637 13.64 39.487 14.288 39.487 15.032C39.487 15.788 39.637 16.448 39.937 17.012C40.237 17.564 40.639 17.99 41.143 18.29C41.6527 18.5802 42.2305 18.7293 42.817 18.722C43.429 18.722 43.987 18.578 44.491 18.29C45.007 17.99 45.415 17.564 45.715 17.012C46.015 16.448 46.165 15.794 46.165 15.05ZM52.227 11.738C52.4993 11.1908 52.9245 10.7344 53.451 10.424C53.991 10.112 54.645 9.95599 55.413 9.95599V11.648H54.981C53.145 11.648 52.227 12.644 52.227 14.636V20H50.59V10.136H52.228L52.227 11.738ZM58.942 11.972C59.278 11.384 59.77 10.904 60.418 10.532C61.066 10.16 61.804 9.97399 62.632 9.97399C63.52 9.97399 64.318 10.184 65.026 10.604C65.7394 11.03 66.3193 11.6473 66.7 12.386C67.108 13.142 67.312 14.024 67.312 15.032C67.312 16.028 67.108 16.916 66.7 17.696C66.3177 18.4487 65.7314 19.0787 65.008 19.514C64.3 19.946 63.508 20.162 62.632 20.162C61.78 20.162 61.03 19.976 60.382 19.604C59.746 19.232 59.266 18.758 58.942 18.182V20H57.304V6.67999H58.942V11.972ZM65.638 15.032C65.638 14.288 65.488 13.64 65.188 13.088C64.91 12.5588 64.4849 12.1212 63.964 11.828C63.4543 11.5378 62.8765 11.3887 62.29 11.396C61.69 11.396 61.132 11.546 60.616 11.846C60.112 12.134 59.704 12.56 59.392 13.124C59.092 13.676 58.942 14.318 58.942 15.05C58.942 15.794 59.092 16.448 59.392 17.012C59.704 17.564 60.112 17.99 60.616 18.29C61.1274 18.5758 61.7041 18.7246 62.29 18.722C62.902 18.722 63.46 18.578 63.964 18.29C64.48 17.99 64.888 17.564 65.188 17.012C65.488 16.448 65.638 15.788 65.638 15.032ZM78.468 14.69C78.468 15.002 78.45 15.332 78.414 15.68H70.53C70.59 16.652 70.92 17.414 71.52 17.966C72.132 18.506 72.87 18.776 73.734 18.776C74.442 18.776 75.03 18.614 75.498 18.29C75.978 17.954 76.314 17.51 76.506 16.958H78.27C78.017 17.8876 77.4592 18.7053 76.686 19.28C75.894 19.868 74.91 20.162 73.734 20.162C72.798 20.162 71.958 19.952 71.214 19.532C70.4823 19.1117 69.8835 18.4942 69.486 17.75C69.066 16.97 68.856 16.07 68.856 15.05C68.856 14.03 69.06 13.136 69.468 12.368C69.8519 11.6245 70.4468 11.0108 71.178 10.604C71.922 10.184 72.774 9.97399 73.734 9.97399C74.67 9.97399 75.498 10.178 76.218 10.586C76.938 10.994 77.49 11.558 77.874 12.278C78.27 12.986 78.468 13.79 78.468 14.69ZM76.776 14.348C76.776 13.724 76.638 13.19 76.362 12.746C76.0954 12.298 75.7003 11.9406 75.228 11.72C74.76 11.48 74.238 11.36 73.662 11.36C72.834 11.36 72.126 11.624 71.538 12.152C70.962 12.68 70.632 13.412 70.548 14.348H76.776ZM82.268 11.738C82.5403 11.1908 82.9655 10.7344 83.492 10.424C84.032 10.112 84.686 9.95599 85.454 9.95599V11.648H85.022C83.186 11.648 82.268 12.644 82.268 14.636V20H80.63V10.136H82.268V11.738ZM94.185 12.71V14.096H87.003V12.71H94.185ZM101.273 11.486H99.203V20H97.565V11.486H96.287V10.136H97.565V9.43399C97.565 8.32999 97.847 7.52599 98.411 7.02199C98.987 6.50599 99.905 6.24799 101.165 6.24799V7.61599C100.445 7.61599 99.935 7.75999 99.635 8.04799C99.347 8.32399 99.203 8.78599 99.203 9.43399V10.136H101.273V11.486ZM112.183 14.69C112.183 15.002 112.165 15.332 112.129 15.68H104.245C104.305 16.652 104.635 17.414 105.235 17.966C105.847 18.506 106.585 18.776 107.449 18.776C108.157 18.776 108.745 18.614 109.213 18.29C109.693 17.954 110.029 17.51 110.221 16.958H111.985C111.732 17.8876 111.174 18.7053 110.401 19.28C109.609 19.868 108.625 20.162 107.449 20.162C106.513 20.162 105.673 19.952 104.929 19.532C104.197 19.1117 103.599 18.4942 103.201 17.75C102.781 16.97 102.571 16.07 102.571 15.05C102.571 14.03 102.775 13.136 103.183 12.368C103.567 11.6245 104.162 11.0108 104.893 10.604C105.637 10.184 106.489 9.97399 107.449 9.97399C108.385 9.97399 109.213 10.178 109.933 10.586C110.653 10.994 111.205 11.558 111.589 12.278C111.985 12.986 112.183 13.79 112.183 14.69ZM110.491 14.348C110.491 13.724 110.353 13.19 110.077 12.746C109.81 12.298 109.415 11.9406 108.943 11.72C108.475 11.48 107.953 11.36 107.377 11.36C106.549 11.36 105.841 11.624 105.253 12.152C104.677 12.68 104.347 13.412 104.263 14.348H110.491Z" fill="white"/>
<path d="M15.765 20.376C15.4851 20.3754 15.2159 20.2688 15.0114 20.0777C14.807 19.8866 14.6825 19.6252 14.663 19.346C15.0021 19.1864 15.289 18.9339 15.4903 18.6177C15.6915 18.3016 15.7989 17.9348 15.8 17.56C15.7995 17.0366 15.5913 16.5348 15.2212 16.1648C14.8512 15.7947 14.3494 15.5865 13.826 15.586C13.316 15.586 12.85 15.781 12.5 16.099L10.97 13.451C11.053 13.351 11.185 13.201 11.343 13.051C11.673 12.737 11.979 12.558 12.206 12.546C12.2428 12.5435 12.2786 12.5326 12.3105 12.514C12.3424 12.4955 12.3696 12.4698 12.39 12.439C12.823 11.769 15.722 5.636 15.845 5.375C15.8695 5.32075 15.8725 5.25923 15.8534 5.20285C15.8343 5.14647 15.7945 5.09944 15.7421 5.07126C15.6897 5.04308 15.6285 5.03584 15.5709 5.05101C15.5134 5.06618 15.4637 5.10263 15.432 5.153L10.688 12.977L5.943 5.153C5.91127 5.10263 5.86162 5.06618 5.80406 5.05101C5.7465 5.03584 5.68533 5.04308 5.6329 5.07126C5.58047 5.09944 5.54068 5.14647 5.52158 5.20285C5.50249 5.25923 5.50549 5.32075 5.53 5.375C5.653 5.635 8.552 11.769 8.986 12.439C9.026 12.502 9.095 12.541 9.17 12.545C9.396 12.558 9.703 12.737 10.032 13.05C10.19 13.2 10.322 13.35 10.405 13.45L8.875 16.1C8.51242 15.7695 8.03958 15.5863 7.549 15.586C7.02562 15.5865 6.52384 15.7947 6.15376 16.1648C5.78367 16.5348 5.57553 17.0366 5.575 17.56C5.575 18.649 6.461 19.534 7.549 19.534C8.07255 19.5337 8.57459 19.3257 8.94489 18.9556C9.31519 18.5855 9.52347 18.0835 9.524 17.56C9.524 17.16 9.404 16.789 9.199 16.477L10.688 13.899L12.176 16.477C11.964 16.7983 11.8513 17.175 11.852 17.56C11.8523 17.8514 11.9171 18.1392 12.0417 18.4026C12.1664 18.666 12.3477 18.8987 12.5728 19.0838C12.7978 19.2689 13.0611 19.402 13.3436 19.4734C13.6261 19.5448 13.921 19.5529 14.207 19.497C14.317 20.259 14.974 20.847 15.766 20.847C15.8283 20.847 15.8881 20.8222 15.9322 20.7782C15.9762 20.7341 16.001 20.6743 16.001 20.612C16.001 20.5497 15.9762 20.4899 15.9322 20.4458C15.8881 20.4018 15.8283 20.377 15.766 20.377M13.38 9.442C12.783 10.672 12.262 11.722 12.05 12.092C11.9285 12.1163 11.8108 12.1567 11.7 12.212L13.38 9.442ZM9.325 12.092C9.113 11.722 8.593 10.672 7.995 9.442L9.675 12.212C9.56416 12.1567 9.44646 12.1163 9.325 12.092ZM7.549 19.064C6.719 19.064 6.044 18.389 6.044 17.559C6.044 16.729 6.72 16.054 7.549 16.054C8.379 16.054 9.055 16.729 9.055 17.559C9.055 18.389 8.379 19.064 7.549 19.064ZM12.321 17.559C12.321 16.729 12.996 16.054 13.826 16.054C14.656 16.054 15.331 16.729 15.331 17.559C15.331 18.389 14.656 19.064 13.826 19.064C12.996 19.064 12.321 18.389 12.321 17.559ZM4.213 5.47C4.27533 5.47 4.3351 5.44524 4.37917 5.40117C4.42324 5.3571 4.448 5.29733 4.448 5.235C4.448 5.17267 4.42324 5.1129 4.37917 5.06883C4.3351 5.02476 4.27533 5 4.213 5H1.103C0.495 5 0 5.495 0 6.103V18.588C0 19.196 0.495 19.691 1.103 19.691H4.213C4.24508 19.6931 4.27725 19.6886 4.30752 19.6778C4.33779 19.6669 4.36552 19.65 4.38898 19.628C4.41245 19.606 4.43115 19.5795 4.44394 19.55C4.45672 19.5205 4.46332 19.4887 4.46332 19.4565C4.46332 19.4243 4.45672 19.3925 4.44394 19.363C4.43115 19.3335 4.41245 19.307 4.38898 19.285C4.36552 19.263 4.33779 19.2461 4.30752 19.2352C4.27725 19.2244 4.24508 19.2199 4.213 19.222H1.338V18.782H4.213C4.27533 18.782 4.3351 18.7572 4.37917 18.7132C4.42324 18.6691 4.448 18.6093 4.448 18.547C4.448 18.4847 4.42324 18.4249 4.37917 18.3808C4.3351 18.3368 4.27533 18.312 4.213 18.312H1.338V17.827H4.213C4.24508 17.8291 4.27725 17.8246 4.30752 17.8138C4.33779 17.8029 4.36552 17.786 4.38898 17.764C4.41245 17.742 4.43115 17.7155 4.44394 17.686C4.45672 17.6565 4.46332 17.6247 4.46332 17.5925C4.46332 17.5603 4.45672 17.5285 4.44394 17.499C4.43115 17.4695 4.41245 17.443 4.38898 17.421C4.36552 17.399 4.33779 17.3821 4.30752 17.3713C4.27725 17.3604 4.24508 17.3559 4.213 17.358H1.338V16.873H4.213C4.27255 16.8691 4.32838 16.8427 4.36918 16.7992C4.40998 16.7556 4.43268 16.6982 4.43268 16.6385C4.43268 16.5788 4.40998 16.5214 4.36918 16.4778C4.32838 16.4343 4.27255 16.4079 4.213 16.404H1.338V15.919H4.213C4.27255 15.9151 4.32838 15.8887 4.36918 15.8452C4.40998 15.8016 4.43268 15.7442 4.43268 15.6845C4.43268 15.6248 4.40998 15.5674 4.36918 15.5238C4.32838 15.4803 4.27255 15.4539 4.213 15.45H1.338V14.965H4.213C4.24508 14.9671 4.27725 14.9626 4.30752 14.9518C4.33779 14.9409 4.36552 14.924 4.38898 14.902C4.41245 14.88 4.43115 14.8535 4.44394 14.824C4.45672 14.7945 4.46332 14.7627 4.46332 14.7305C4.46332 14.6983 4.45672 14.6665 4.44394 14.637C4.43115 14.6075 4.41245 14.581 4.38898 14.559C4.36552 14.537 4.33779 14.5201 4.30752 14.5092C4.27725 14.4984 4.24508 14.4939 4.213 14.496H1.338V14.011H4.213C4.27255 14.0071 4.32838 13.9807 4.36918 13.9372C4.40998 13.8936 4.43268 13.8362 4.43268 13.7765C4.43268 13.7168 4.40998 13.6594 4.36918 13.6158C4.32838 13.5723 4.27255 13.5459 4.213 13.542H1.338V13.057H4.213C4.24508 13.0591 4.27725 13.0546 4.30752 13.0438C4.33779 13.0329 4.36552 13.016 4.38898 12.994C4.41245 12.972 4.43115 12.9455 4.44394 12.916C4.45672 12.8865 4.46332 12.8547 4.46332 12.8225C4.46332 12.7903 4.45672 12.7585 4.44394 12.729C4.43115 12.6995 4.41245 12.673 4.38898 12.651C4.36552 12.629 4.33779 12.6121 4.30752 12.6012C4.27725 12.5904 4.24508 12.5859 4.213 12.588H1.338V12.103H4.213C4.27255 12.0991 4.32838 12.0727 4.36918 12.0292C4.40998 11.9856 4.43268 11.9282 4.43268 11.8685C4.43268 11.8088 4.40998 11.7514 4.36918 11.7078C4.32838 11.6643 4.27255 11.6379 4.213 11.634H1.338V11.149H4.213C4.27255 11.1451 4.32838 11.1187 4.36918 11.0752C4.40998 11.0316 4.43268 10.9742 4.43268 10.9145C4.43268 10.8548 4.40998 10.7974 4.36918 10.7538C4.32838 10.7103 4.27255 10.6839 4.213 10.68H1.338V10.195H4.213C4.27255 10.1911 4.32838 10.1647 4.36918 10.1212C4.40998 10.0776 4.43268 10.0202 4.43268 9.9605C4.43268 9.90083 4.40998 9.84339 4.36918 9.79984C4.32838 9.75629 4.27255 9.72989 4.213 9.726H1.338V9.241H4.213C4.27255 9.23711 4.32838 9.21071 4.36918 9.16716C4.40998 9.12361 4.43268 9.06617 4.43268 9.0065C4.43268 8.94683 4.40998 8.88939 4.36918 8.84584C4.32838 8.80229 4.27255 8.77589 4.213 8.772H1.338V8.287H4.213C4.27255 8.28311 4.32838 8.25671 4.36918 8.21316C4.40998 8.16961 4.43268 8.11217 4.43268 8.0525C4.43268 7.99283 4.40998 7.93539 4.36918 7.89184C4.32838 7.84829 4.27255 7.82189 4.213 7.818H1.338V7.333H4.213C4.27255 7.32911 4.32838 7.30271 4.36918 7.25916C4.40998 7.21561 4.43268 7.15817 4.43268 7.0985C4.43268 7.03883 4.40998 6.98139 4.36918 6.93784C4.32838 6.89429 4.27255 6.86789 4.213 6.864H1.338V6.38H4.213C4.27255 6.37611 4.32838 6.34971 4.36918 6.30616C4.40998 6.26261 4.43268 6.20517 4.43268 6.1455C4.43268 6.08583 4.40998 6.02839 4.36918 5.98484C4.32838 5.94129 4.27255 5.91489 4.213 5.911H1.338V5.471L4.213 5.47ZM0.47 18.587V6.103C0.47 5.837 0.636 5.608 0.87 5.515V19.177C0.752103 19.13 0.650983 19.0488 0.579685 18.9438C0.508388 18.8388 0.470183 18.7139 0.47 18.587Z" fill="white"/>
</svg>
