<svg width="136" height="27" viewBox="0 0 136 27" fill="none" xmlns="http://www.w3.org/2000/svg">
<path d="M31.292 7.454C32.66 7.454 33.842 7.712 34.838 8.228C35.846 8.732 36.614 9.458 37.142 10.406C37.682 11.354 37.952 12.47 37.952 13.754C37.952 15.038 37.682 16.154 37.142 17.102C36.614 18.038 35.846 18.758 34.838 19.262C33.842 19.754 32.66 20 31.292 20H27.386V7.454H31.292ZM31.292 18.65C32.912 18.65 34.148 18.224 35 17.372C35.852 16.508 36.278 15.302 36.278 13.754C36.278 12.194 35.846 10.976 34.982 10.1C34.13 9.224 32.9 8.786 31.292 8.786H29.024V18.65H31.292ZM49.1126 14.69C49.1126 15.002 49.0946 15.332 49.0586 15.68H41.1746C41.2346 16.652 41.5646 17.414 42.1646 17.966C42.7766 18.506 43.5146 18.776 44.3786 18.776C45.0866 18.776 45.6746 18.614 46.1426 18.29C46.6226 17.954 46.9586 17.51 47.1506 16.958H48.9146C48.6506 17.906 48.1226 18.68 47.3306 19.28C46.5386 19.868 45.5546 20.162 44.3786 20.162C43.4426 20.162 42.6026 19.952 41.8586 19.532C41.1266 19.112 40.5506 18.518 40.1306 17.75C39.7106 16.97 39.5006 16.07 39.5006 15.05C39.5006 14.03 39.7046 13.136 40.1126 12.368C40.5206 11.6 41.0906 11.012 41.8226 10.604C42.5666 10.184 43.4186 9.974 44.3786 9.974C45.3146 9.974 46.1426 10.178 46.8626 10.586C47.5826 10.994 48.1346 11.558 48.5186 12.278C48.9146 12.986 49.1126 13.79 49.1126 14.69ZM47.4206 14.348C47.4206 13.724 47.2826 13.19 47.0066 12.746C46.7306 12.29 46.3526 11.948 45.8726 11.72C45.4046 11.48 44.8826 11.36 44.3066 11.36C43.4786 11.36 42.7706 11.624 42.1826 12.152C41.6066 12.68 41.2766 13.412 41.1926 14.348H47.4206ZM52.9127 11.972C53.2487 11.384 53.7407 10.904 54.3887 10.532C55.0367 10.16 55.7747 9.974 56.6027 9.974C57.4907 9.974 58.2887 10.184 58.9967 10.604C59.7047 11.024 60.2627 11.618 60.6707 12.386C61.0787 13.142 61.2827 14.024 61.2827 15.032C61.2827 16.028 61.0787 16.916 60.6707 17.696C60.2627 18.476 59.6987 19.082 58.9787 19.514C58.2707 19.946 57.4787 20.162 56.6027 20.162C55.7507 20.162 55.0007 19.976 54.3527 19.604C53.7167 19.232 53.2367 18.758 52.9127 18.182V20H51.2747V6.68H52.9127V11.972ZM59.6087 15.032C59.6087 14.288 59.4587 13.64 59.1587 13.088C58.8587 12.536 58.4507 12.116 57.9347 11.828C57.4307 11.54 56.8727 11.396 56.2607 11.396C55.6607 11.396 55.1027 11.546 54.5867 11.846C54.0827 12.134 53.6747 12.56 53.3627 13.124C53.0627 13.676 52.9127 14.318 52.9127 15.05C52.9127 15.794 53.0627 16.448 53.3627 17.012C53.6747 17.564 54.0827 17.99 54.5867 18.29C55.1027 18.578 55.6607 18.722 56.2607 18.722C56.8727 18.722 57.4307 18.578 57.9347 18.29C58.4507 17.99 58.8587 17.564 59.1587 17.012C59.4587 16.448 59.6087 15.788 59.6087 15.032ZM65.4367 11.486V17.3C65.4367 17.78 65.5387 18.122 65.7427 18.326C65.9467 18.518 66.3007 18.614 66.8047 18.614H68.0107V20H66.5347C65.6227 20 64.9387 19.79 64.4827 19.37C64.0267 18.95 63.7987 18.26 63.7987 17.3V11.486H62.5207V10.136H63.7987V7.652H65.4367V10.136H68.0107V11.486H65.4367ZM77.7174 7.454V8.786H74.2974V20H72.6594V8.786H69.2214V7.454H77.7174ZM81.3717 11.738C81.6597 11.174 82.0677 10.736 82.5957 10.424C83.1357 10.112 83.7897 9.956 84.5577 9.956V11.648H84.1257C82.2897 11.648 81.3717 12.644 81.3717 14.636V20H79.7337V10.136H81.3717V11.738ZM85.8365 15.032C85.8365 14.024 86.0405 13.142 86.4485 12.386C86.8565 11.618 87.4145 11.024 88.1225 10.604C88.8425 10.184 89.6405 9.974 90.5165 9.974C91.3805 9.974 92.1305 10.16 92.7665 10.532C93.4025 10.904 93.8765 11.372 94.1885 11.936V10.136H95.8445V20H94.1885V18.164C93.8645 18.74 93.3785 19.22 92.7305 19.604C92.0945 19.976 91.3505 20.162 90.4985 20.162C89.6225 20.162 88.8305 19.946 88.1225 19.514C87.4145 19.082 86.8565 18.476 86.4485 17.696C86.0405 16.916 85.8365 16.028 85.8365 15.032ZM94.1885 15.05C94.1885 14.306 94.0385 13.658 93.7385 13.106C93.4385 12.554 93.0305 12.134 92.5145 11.846C92.0105 11.546 91.4525 11.396 90.8405 11.396C90.2285 11.396 89.6705 11.54 89.1665 11.828C88.6625 12.116 88.2605 12.536 87.9605 13.088C87.6605 13.64 87.5105 14.288 87.5105 15.032C87.5105 15.788 87.6605 16.448 87.9605 17.012C88.2605 17.564 88.6625 17.99 89.1665 18.29C89.6705 18.578 90.2285 18.722 90.8405 18.722C91.4525 18.722 92.0105 18.578 92.5145 18.29C93.0305 17.99 93.4385 17.564 93.7385 17.012C94.0385 16.448 94.1885 15.794 94.1885 15.05ZM98.0006 15.05C98.0006 14.03 98.2046 13.142 98.6126 12.386C99.0206 11.618 99.5846 11.024 100.305 10.604C101.037 10.184 101.871 9.974 102.807 9.974C104.019 9.974 105.015 10.268 105.795 10.856C106.587 11.444 107.109 12.26 107.361 13.304H105.597C105.429 12.704 105.099 12.23 104.607 11.882C104.127 11.534 103.527 11.36 102.807 11.36C101.871 11.36 101.115 11.684 100.539 12.332C99.9626 12.968 99.6746 13.874 99.6746 15.05C99.6746 16.238 99.9626 17.156 100.539 17.804C101.115 18.452 101.871 18.776 102.807 18.776C103.527 18.776 104.127 18.608 104.607 18.272C105.087 17.936 105.417 17.456 105.597 16.832H107.361C107.097 17.84 106.569 18.65 105.777 19.262C104.985 19.862 103.995 20.162 102.807 20.162C101.871 20.162 101.037 19.952 100.305 19.532C99.5846 19.112 99.0206 18.518 98.6126 17.75C98.2046 16.982 98.0006 16.082 98.0006 15.05ZM115.054 20L111.184 15.644V20H109.546V6.68H111.184V14.51L114.982 10.136H117.268L112.624 15.05L117.286 20H115.054ZM127.81 14.69C127.81 15.002 127.792 15.332 127.756 15.68H119.872C119.932 16.652 120.262 17.414 120.862 17.966C121.474 18.506 122.212 18.776 123.076 18.776C123.784 18.776 124.372 18.614 124.84 18.29C125.32 17.954 125.656 17.51 125.848 16.958H127.612C127.348 17.906 126.82 18.68 126.028 19.28C125.236 19.868 124.252 20.162 123.076 20.162C122.14 20.162 121.3 19.952 120.556 19.532C119.824 19.112 119.248 18.518 118.828 17.75C118.408 16.97 118.198 16.07 118.198 15.05C118.198 14.03 118.402 13.136 118.81 12.368C119.218 11.6 119.788 11.012 120.52 10.604C121.264 10.184 122.116 9.974 123.076 9.974C124.012 9.974 124.84 10.178 125.56 10.586C126.28 10.994 126.832 11.558 127.216 12.278C127.612 12.986 127.81 13.79 127.81 14.69ZM126.118 14.348C126.118 13.724 125.98 13.19 125.704 12.746C125.428 12.29 125.05 11.948 124.57 11.72C124.102 11.48 123.58 11.36 123.004 11.36C122.176 11.36 121.468 11.624 120.88 12.152C120.304 12.68 119.974 13.412 119.89 14.348H126.118ZM131.61 11.738C131.898 11.174 132.306 10.736 132.834 10.424C133.374 10.112 134.028 9.956 134.796 9.956V11.648H134.364C132.528 11.648 131.61 12.644 131.61 14.636V20H129.972V10.136H131.61V11.738Z" fill="white"/>
<path d="M6.46566 8.70433C6.46566 8.49768 6.30844 8.33006 6.11409 8.33006C5.92025 8.33006 5.76303 8.49768 5.76303 8.70433C5.76303 8.91153 5.92025 9.07914 6.11409 9.07914C6.30844 9.07914 6.46566 8.91149 6.46566 8.70433Z" fill="white"/>
<path d="M12.8026 8.33003C12.6087 8.33003 12.4515 8.49764 12.4515 8.7043C12.4515 8.91149 12.6087 9.07911 12.8026 9.07911C12.9969 9.07911 13.1541 8.91149 13.1541 8.7043C13.1541 8.49764 12.9969 8.33003 12.8026 8.33003Z" fill="white"/>
<path d="M5.44515 9.61528C5.05062 9.47732 4.62534 9.7069 4.49644 10.128L3.11509 13.2853H2.23519V7.65694L1.38412 8.26182C1.21275 8.38362 1.08334 8.56113 1.01547 8.76782L0.106779 12.6585C-0.0645962 13.179 -0.0284712 13.7517 0.206404 14.2441L1.71081 17.3966C1.89247 17.7777 1.93153 18.2181 1.82019 18.6283L1.17078 21H4.57509C4.57509 21 5.1869 17.0989 5.43056 16.0088C5.76456 14.5164 5.86709 13.6809 5.54434 12.4034L5.92665 10.6262C6.056 10.2056 5.84015 9.75271 5.44515 9.61528Z" fill="white"/>
<path d="M2.91681 5V12.191L3.75178 10.2837C3.7459 10.2832 3.74056 10.2806 3.73468 10.2795V7.12859C4.32159 7.02291 4.77862 6.51068 4.83822 5.87144H8.23472C7.46762 6.42635 6.94956 7.4852 6.94956 8.70433C6.94956 9.92346 7.46762 10.9828 8.23472 11.5383H6.35972L6.17222 12.4097H16.0003V5H2.91681ZM9.76693 10.3248H9.14975V9.53616H8.15609V9.45807V8.96249V8.96146H9.14975V8.57833L9.05306 8.41798H8.15609V8.30294V7.95366V7.83912H8.70347L8.24887 7.08431H8.31822H8.77184H8.84118L9.45787 8.10774L10.0756 7.08431H10.1454H10.5985H10.6678L10.2132 7.83912H10.7606V7.95366V8.30294V8.41798H9.86315L9.76696 8.5778V8.96146H10.7606V8.96249V9.45807V9.53616H9.76696V10.3248H9.76693ZM15.1824 10.2795C14.595 10.3852 14.1375 10.899 14.0779 11.5382H10.6815C11.4491 10.9828 11.9676 9.92346 11.9676 8.7043C11.9676 7.48513 11.449 6.42632 10.6815 5.87141H14.0779C14.1375 6.51014 14.595 7.02291 15.1824 7.12855V10.2795Z" fill="white"/>
</svg>
