<svg width="106" height="24" viewBox="0 0 106 24" fill="none" xmlns="http://www.w3.org/2000/svg">
<path d="M19.28 7.586H10.228C8.03899 7.586 6.66699 9.136 6.66699 11.331V17.251C6.66699 19.446 8.03199 20.996 10.229 20.996H19.279C21.476 20.996 22.843 19.446 22.843 17.251V11.331C22.843 9.136 21.476 7.586 19.28 7.586Z" stroke="white" stroke-width="1.5" stroke-linecap="round" stroke-linejoin="round"/>
<path d="M10.214 12.049H19.289M18.927 7.58397L17.342 4.93997C16.206 3.06797 14.24 2.43697 12.354 3.57397L4.60502 8.23997C2.72602 9.36797 2.34802 11.404 3.47702 13.29L6.53802 18.356C6.68102 18.601 6.83802 18.822 7.01902 19.02V19.027" stroke="white" stroke-width="1.5" stroke-linecap="round" stroke-linejoin="round"/>
<path d="M34.804 8.95501H39.997V18.5H38.336V10.559H34.804V18.5H33.144V10.559H31.616V8.95501H33.144V8.67001C33.144 6.15001 34.537 4.89001 37.324 4.89001C37.884 4.89001 38.54 4.97301 39.29 5.13801V6.64601C38.45 6.54401 37.795 6.49401 37.324 6.49401C36.446 6.49401 35.804 6.65901 35.396 6.99001C35.002 7.32001 34.804 7.88001 34.804 8.67001V8.95602V8.95501ZM47.294 8.70701C48.414 8.70701 49.311 9.06301 49.986 9.77601C50.66 10.476 50.998 11.43 50.998 12.639V18.5H49.337V12.735C49.337 11.971 49.127 11.373 48.707 10.941C48.287 10.508 47.707 10.291 46.97 10.291C46.117 10.291 45.443 10.559 44.946 11.093C44.45 11.615 44.202 12.398 44.202 13.441V18.5H42.54V8.95501H44.2V10.33C44.863 9.24801 45.894 8.70701 47.294 8.70701ZM57.802 18.748C56.364 18.748 55.168 18.271 54.213 17.316C53.259 16.349 52.782 15.153 52.782 13.728C52.782 12.302 53.259 11.112 54.213 10.158C55.168 9.19101 56.364 8.70701 57.803 8.70701C58.744 8.70701 59.59 8.93601 60.341 9.39401C61.092 9.84001 61.652 10.444 62.021 11.208L60.628 12.009C60.3838 11.4979 59.991 11.0723 59.501 10.788C59.005 10.482 58.439 10.33 57.802 10.33C56.848 10.33 56.046 10.654 55.397 11.303C54.761 11.965 54.443 12.773 54.443 13.728C54.443 14.669 54.761 15.471 55.397 16.133C56.046 16.782 56.847 17.106 57.802 17.106C58.439 17.106 59.012 16.96 59.52 16.667C60.0148 16.3769 60.4184 15.9539 60.685 15.446L62.097 16.266C61.684 17.0228 61.0697 17.6506 60.322 18.08C59.5576 18.5257 58.6869 18.7565 57.802 18.748ZM68.491 8.70701C69.611 8.70701 70.508 9.06301 71.182 9.77601C71.857 10.476 72.194 11.43 72.194 12.639V18.5H70.534V12.735C70.534 11.971 70.324 11.373 69.904 10.941C69.484 10.508 68.904 10.291 68.166 10.291C67.313 10.291 66.639 10.559 66.143 11.093C65.646 11.615 65.398 12.398 65.398 13.441V18.5H63.738V5.13701H65.398V10.33C66.06 9.24801 67.091 8.70701 68.491 8.70701ZM83.676 14.491H75.677C75.842 15.331 76.231 15.993 76.841 16.477C77.452 16.947 78.216 17.183 79.132 17.183C80.392 17.183 81.308 16.718 81.882 15.789L83.294 16.591C82.352 18.029 80.952 18.748 79.094 18.748C77.592 18.748 76.358 18.278 75.391 17.335C74.449 16.368 73.978 15.165 73.978 13.728C73.978 12.277 74.443 11.081 75.372 10.138C76.301 9.18401 77.503 8.70701 78.98 8.70701C80.38 8.70701 81.518 9.20301 82.397 10.196C83.287 11.163 83.733 12.346 83.733 13.746C83.733 13.988 83.713 14.236 83.676 14.491ZM78.979 10.272C78.101 10.272 77.363 10.52 76.765 11.017C76.18 11.513 75.817 12.187 75.677 13.04H82.053C81.913 12.162 81.563 11.481 81.003 10.998C80.443 10.514 79.769 10.272 78.98 10.272H78.979ZM90.109 18.748C88.671 18.748 87.475 18.271 86.521 17.316C85.566 16.349 85.089 15.153 85.089 13.728C85.089 12.302 85.566 11.112 86.521 10.158C87.475 9.19101 88.671 8.70701 90.109 8.70701C91.051 8.70701 91.897 8.93601 92.649 9.39401C93.399 9.84001 93.959 10.444 94.329 11.208L92.935 12.009C92.6908 11.4979 92.298 11.0723 91.808 10.788C91.312 10.482 90.746 10.33 90.109 10.33C89.155 10.33 88.353 10.654 87.704 11.303C87.068 11.965 86.75 12.773 86.75 13.728C86.75 14.669 87.068 15.471 87.704 16.133C88.354 16.782 89.154 17.106 90.109 17.106C90.746 17.106 91.319 16.96 91.828 16.667C92.337 16.362 92.725 15.955 92.992 15.446L94.405 16.266C93.9918 17.023 93.3771 17.6508 92.629 18.08C91.8646 18.5257 90.9939 18.7565 90.109 18.748ZM99.404 13.575L104.119 18.5H102.058L97.705 13.976V18.5H96.045V5.13701H97.705V13.174L101.829 8.95501H103.967L99.404 13.575Z" fill="white"/>
</svg>
