<svg width="112" height="27" viewBox="0 0 112 27" fill="none" xmlns="http://www.w3.org/2000/svg">
<path fill-rule="evenodd" clip-rule="evenodd" d="M0 18.5H13.333V20H0V18.5ZM1.333 8H3.333V17.75H1.333V8ZM4 8.75H6V17.75H4V8.75ZM9.03 9.3L10.999 8.908L12.497 17.75L10.333 17.763L9.03 9.3ZM6.667 8.75H8.667V17.75H6.667V8.75Z" fill="white"/>
<path d="M27.024 18.668H31.416V20H25.386V7.454H27.024V18.668ZM34.001 8.534C33.6897 8.534 33.426 8.426 33.21 8.21C33.1047 8.10711 33.0216 7.98378 32.9657 7.84758C32.9098 7.71138 32.8823 7.5652 32.885 7.418C32.885 7.106 32.9933 6.842 33.21 6.626C33.426 6.41 33.6897 6.302 34.001 6.302C34.301 6.302 34.5533 6.41 34.758 6.626C34.9733 6.842 35.081 7.106 35.081 7.418C35.081 7.73 34.973 7.994 34.757 8.21C34.6613 8.31439 34.5445 8.39726 34.4143 8.45312C34.2842 8.50897 34.1426 8.53654 34.001 8.534ZM34.795 10.136V20H33.157V10.136H34.795ZM39.225 11.972C39.5603 11.384 40.052 10.904 40.7 10.532C41.348 10.16 42.086 9.974 42.914 9.974C43.802 9.974 44.6 10.184 45.308 10.604C46.0214 11.0301 46.6013 11.6474 46.982 12.386C47.39 13.142 47.594 14.024 47.594 15.032C47.594 16.028 47.39 16.916 46.982 17.696C46.5997 18.4487 46.0134 19.0787 45.29 19.514C44.582 19.946 43.79 20.162 42.914 20.162C42.062 20.162 41.312 19.976 40.664 19.604C40.028 19.232 39.548 18.758 39.224 18.182V20H37.586V6.68H39.224L39.225 11.972ZM45.92 15.032C45.92 14.288 45.77 13.64 45.47 13.088C45.192 12.5588 44.767 12.1212 44.246 11.828C43.7363 11.5378 43.1585 11.3887 42.572 11.396C41.972 11.396 41.414 11.546 40.898 11.846C40.394 12.134 39.986 12.56 39.674 13.124C39.374 13.676 39.224 14.318 39.224 15.05C39.224 15.794 39.374 16.448 39.674 17.012C39.986 17.564 40.394 17.99 40.898 18.29C41.4095 18.5758 41.9861 18.7246 42.572 18.722C43.184 18.722 43.742 18.578 44.246 18.29C44.762 17.99 45.17 17.564 45.47 17.012C45.77 16.448 45.92 15.788 45.92 15.032ZM51.388 11.738C51.6603 11.1908 52.0855 10.7344 52.612 10.424C53.152 10.112 53.806 9.956 54.574 9.956V11.648H54.142C52.306 11.648 51.388 12.644 51.388 14.636V20H49.75V10.136H51.388V11.738ZM55.853 15.032C55.853 14.024 56.057 13.142 56.465 12.386C56.8457 11.6474 57.4256 11.0301 58.139 10.604C58.859 10.184 59.657 9.974 60.533 9.974C61.397 9.974 62.147 10.16 62.783 10.532C63.419 10.904 63.893 11.372 64.205 11.936V10.136H65.861V20H64.205V18.164C63.881 18.74 63.395 19.22 62.747 19.604C62.111 19.976 61.367 20.162 60.515 20.162C59.639 20.162 58.847 19.946 58.139 19.514C57.431 19.082 56.873 18.476 56.465 17.696C56.057 16.916 55.853 16.028 55.853 15.032ZM64.205 15.05C64.205 14.306 64.055 13.658 63.755 13.106C63.477 12.5768 63.052 12.1392 62.531 11.846C62.025 11.5448 61.4458 11.3891 60.857 11.396C60.245 11.396 59.687 11.54 59.183 11.828C58.6697 12.1253 58.2515 12.5622 57.977 13.088C57.677 13.64 57.527 14.288 57.527 15.032C57.527 15.788 57.677 16.448 57.977 17.012C58.277 17.564 58.679 17.99 59.183 18.29C59.6927 18.5802 60.2705 18.7293 60.857 18.722C61.469 18.722 62.027 18.578 62.531 18.29C63.047 17.99 63.455 17.564 63.755 17.012C64.055 16.448 64.205 15.794 64.205 15.05ZM70.267 11.738C70.5393 11.1908 70.9645 10.7344 71.491 10.424C72.031 10.112 72.685 9.956 73.453 9.956V11.648H73.021C71.185 11.648 70.267 12.644 70.267 14.636V20H68.629V10.136H70.267V11.738ZM83.84 10.136L77.9 24.644H76.208L78.152 19.892L74.174 10.136H75.992L79.088 18.128L82.148 10.136H83.84ZM92.327 12.71V14.096H85.145V12.71H92.327ZM99.415 11.486H97.345V20H95.707V11.486H94.429V10.136H95.707V9.434C95.707 8.33 95.989 7.526 96.553 7.022C97.129 6.506 98.047 6.248 99.307 6.248V7.616C98.587 7.616 98.077 7.76 97.777 8.048C97.489 8.324 97.345 8.786 97.345 9.434V10.136H99.415V11.486ZM110.325 14.69C110.325 15.002 110.307 15.332 110.271 15.68H102.387C102.447 16.652 102.777 17.414 103.377 17.966C103.989 18.506 104.727 18.776 105.591 18.776C106.299 18.776 106.887 18.614 107.355 18.29C107.835 17.954 108.171 17.51 108.363 16.958H110.127C109.874 17.8876 109.316 18.7053 108.543 19.28C107.751 19.868 106.767 20.162 105.591 20.162C104.655 20.162 103.815 19.952 103.071 19.532C102.339 19.1118 101.741 18.4943 101.343 17.75C100.923 16.97 100.713 16.07 100.713 15.05C100.713 14.03 100.917 13.136 101.325 12.368C101.709 11.6245 102.304 11.0108 103.035 10.604C103.779 10.184 104.631 9.974 105.591 9.974C106.527 9.974 107.355 10.178 108.075 10.586C108.795 10.994 109.347 11.558 109.731 12.278C110.127 12.986 110.325 13.79 110.325 14.69ZM108.633 14.348C108.633 13.724 108.495 13.19 108.219 12.746C107.952 12.2981 107.557 11.9406 107.085 11.72C106.617 11.48 106.095 11.36 105.519 11.36C104.691 11.36 103.983 11.624 103.395 12.152C102.819 12.68 102.489 13.412 102.405 14.348H108.633Z" fill="white"/>
</svg>
