<svg width="18" height="18" viewBox="0 0 18 18" fill="none" xmlns="http://www.w3.org/2000/svg">
<g clip-path="url(#clip0_6_133)">
<path d="M17.3366 10.9049L16.7158 10.5465C16.82 10.0278 16.8728 9.50851 16.8728 9C16.8728 8.48409 16.8209 7.96428 16.7184 7.452L17.3366 7.09503C17.5281 6.98449 17.6651 6.80597 17.7223 6.5924C17.7795 6.37883 17.7502 6.15575 17.6396 5.96427L15.9488 3.03569C15.8947 2.94137 15.8224 2.85871 15.7361 2.79251C15.6498 2.72631 15.5513 2.67787 15.4462 2.65002C15.3412 2.62159 15.2316 2.61426 15.1238 2.62845C15.016 2.64265 14.912 2.67809 14.818 2.73272L14.1992 3.08998C13.4176 2.40235 12.4978 1.87017 11.5186 1.53905V0.827789C11.5186 0.371342 11.1472 0 10.6908 0H7.30919C6.85275 0 6.4814 0.371342 6.4814 0.827789V1.53909C5.50743 1.86887 4.58883 2.40175 3.80433 3.09209L3.18194 2.73272C3.08791 2.67808 2.98397 2.64264 2.87614 2.62844C2.76832 2.61425 2.65875 2.62158 2.55377 2.65002C2.44866 2.67788 2.35011 2.72632 2.26384 2.79252C2.17756 2.85872 2.10527 2.94137 2.05115 3.03569L0.360346 5.96427C0.249775 6.15575 0.220432 6.37883 0.277638 6.5924C0.334843 6.80597 0.471833 6.98449 0.663317 7.09503L1.28419 7.45351C1.18 7.97213 1.1272 8.49146 1.1272 9C1.1272 9.51584 1.17912 10.0357 1.28162 10.548L0.663352 10.9049C0.268057 11.1332 0.132158 11.6404 0.360346 12.0357L2.05115 14.9643C2.27937 15.3596 2.78661 15.4955 3.18194 15.2673L3.80067 14.91C4.58231 15.5977 5.50215 16.1298 6.4814 16.461V17.1722C6.4814 17.6287 6.85275 18 7.30919 18H10.6908C11.1472 18 11.5186 17.6287 11.5186 17.1722V16.4609C12.4926 16.1311 13.4112 15.5983 14.1957 14.9079L14.818 15.2673C15.2133 15.4955 15.7206 15.3596 15.9488 14.9643L17.6396 12.0357C17.8678 11.6404 17.7319 11.1332 17.3366 10.9049ZM17.182 11.7715L15.4912 14.7001C15.4087 14.8431 15.2252 14.8922 15.0822 14.8097L14.2935 14.3543C14.2446 14.3261 14.1881 14.3143 14.132 14.3205C14.076 14.3268 14.0234 14.3508 13.982 14.3891C13.1756 15.1349 12.2054 15.6977 11.1762 16.0165C11.1223 16.0332 11.0752 16.0667 11.0417 16.1121C11.0083 16.1575 10.9902 16.2124 10.9902 16.2688V17.1722C10.9902 17.3373 10.8559 17.4716 10.6908 17.4716H7.30919C7.14409 17.4716 7.00978 17.3373 7.00978 17.1722V16.2689C7.00977 16.2125 6.99172 16.1575 6.95825 16.1121C6.92479 16.0667 6.87767 16.0332 6.82379 16.0165C5.78831 15.6957 4.81688 15.1337 4.01442 14.3913C3.97303 14.3529 3.92046 14.3289 3.8644 14.3226C3.80835 14.3163 3.75176 14.3282 3.70292 14.3564L2.91776 14.8097C2.77474 14.8922 2.59129 14.8431 2.50876 14.7001L0.817955 11.7715C0.735422 11.6286 0.784597 11.4451 0.92754 11.3625L1.71207 10.9095C1.76088 10.8814 1.7994 10.8383 1.822 10.7867C1.8446 10.7351 1.85009 10.6776 1.83768 10.6226C1.71683 10.0869 1.65557 9.54099 1.65557 9C1.65557 8.4681 1.71774 7.92268 1.8404 7.37887C1.85279 7.32391 1.84729 7.26641 1.82469 7.2148C1.80209 7.16318 1.76358 7.12014 1.71478 7.09196L0.92754 6.63746C0.893425 6.61788 0.863531 6.59173 0.839587 6.56053C0.815644 6.52932 0.798126 6.49368 0.788049 6.45566C0.77777 6.41769 0.775121 6.37806 0.780254 6.33906C0.785388 6.30007 0.798201 6.26247 0.817955 6.22846L2.50876 3.29988C2.52833 3.26576 2.55448 3.23586 2.58569 3.21191C2.6169 3.18797 2.65256 3.17046 2.69059 3.16039C2.72856 3.15011 2.76819 3.14745 2.80719 3.15259C2.84618 3.15772 2.88378 3.17054 2.91779 3.1903L3.70655 3.64569C3.75538 3.67389 3.81196 3.68573 3.86801 3.67946C3.92405 3.67319 3.97661 3.64915 4.01801 3.61085C4.82445 2.86503 5.79466 2.30231 6.82379 1.98349C6.87768 1.9668 6.92481 1.9333 6.95828 1.88789C6.99175 1.84248 7.00981 1.78755 7.00981 1.73114V0.827789C7.00981 0.662689 7.14413 0.528376 7.30923 0.528376H10.6908C10.8559 0.528376 10.9902 0.662689 10.9902 0.827789V1.73114C10.9902 1.78754 11.0083 1.84247 11.0418 1.88787C11.0752 1.93328 11.1224 1.96679 11.1762 1.98349C12.2117 2.30425 13.1831 2.86626 13.9856 3.60874C14.027 3.64704 14.0796 3.67108 14.1356 3.67736C14.1917 3.68363 14.2483 3.67181 14.2971 3.64361L15.0823 3.1903C15.1163 3.17054 15.1539 3.15772 15.1929 3.15259C15.2319 3.14746 15.2715 3.15011 15.3095 3.16039C15.3475 3.17047 15.3831 3.18799 15.4143 3.21194C15.4456 3.23588 15.4717 3.26577 15.4913 3.29988L17.1821 6.22846C17.2019 6.26247 17.2147 6.30006 17.2198 6.33906C17.2249 6.37806 17.2223 6.41769 17.212 6.45566C17.2019 6.49368 17.1844 6.52932 17.1605 6.56053C17.1365 6.59173 17.1066 6.61788 17.0725 6.63746L16.288 7.09041C16.2392 7.11859 16.2007 7.16164 16.1781 7.21326C16.1555 7.26489 16.15 7.32239 16.1624 7.37736C16.2832 7.91299 16.3445 8.45891 16.3445 9C16.3445 9.5319 16.2823 10.0773 16.1597 10.6211C16.1473 10.6761 16.1528 10.7335 16.1754 10.7852C16.198 10.8368 16.2365 10.8798 16.2853 10.908L17.0725 11.3625C17.2154 11.4451 17.2646 11.6286 17.182 11.7715Z" fill="white"/>
<path d="M8.99999 3.66339C6.05736 3.66339 3.66339 6.05739 3.66339 8.99999C3.66339 11.9426 6.05736 14.3366 8.99999 14.3366C11.9426 14.3366 14.3366 11.9426 14.3366 8.99999C14.3366 6.05739 11.9426 3.66339 8.99999 3.66339ZM8.99999 13.8082C6.34874 13.8082 4.19177 11.6512 4.19177 8.99999C4.19177 6.34874 6.34874 4.19177 8.99999 4.19177C11.6512 4.19177 13.8082 6.34874 13.8082 8.99999C13.8082 11.6512 11.6512 13.8082 8.99999 13.8082Z" fill="white"/>
<path d="M9.9863 7.60863H8.99999C8.92993 7.60863 8.86273 7.63647 8.81319 7.68601C8.76364 7.73556 8.73581 7.80275 8.73581 7.87282V10.1272C8.73581 10.1973 8.76364 10.2645 8.81319 10.314C8.86273 10.3636 8.92993 10.3914 8.99999 10.3914C9.07006 10.3914 9.13726 10.3636 9.1868 10.314C9.23635 10.2645 9.26418 10.1973 9.26418 10.1272V9.54601H9.9863C10.5204 9.54601 10.955 9.11147 10.955 8.57732C10.955 8.04317 10.5204 7.60863 9.9863 7.60863ZM9.9863 9.01763H9.26418V8.13701H9.9863C10.2291 8.13701 10.4266 8.33451 10.4266 8.57732C10.4266 8.82013 10.2291 9.01763 9.9863 9.01763ZM7.55654 7.78007C7.53766 7.72972 7.50386 7.68632 7.45966 7.65569C7.41547 7.62505 7.36297 7.60864 7.30919 7.60863H7.02739C6.97361 7.60863 6.92111 7.62504 6.87691 7.65568C6.83271 7.68631 6.79891 7.72971 6.78004 7.78007L5.93464 10.0345C5.91004 10.1001 5.9125 10.1728 5.9415 10.2366C5.97049 10.3003 6.02364 10.35 6.08924 10.3746C6.15485 10.3992 6.22754 10.3967 6.29133 10.3678C6.35512 10.3388 6.40477 10.2856 6.42938 10.22L6.57641 9.82781H7.76014L7.90721 10.22C7.92609 10.2703 7.95989 10.3137 8.0041 10.3444C8.0483 10.375 8.1008 10.3915 8.15459 10.3915C8.19728 10.3915 8.23934 10.3811 8.27715 10.3613C8.31497 10.3415 8.34742 10.3128 8.37173 10.2777C8.39604 10.2426 8.41148 10.2022 8.41674 10.1598C8.422 10.1175 8.41691 10.0744 8.40191 10.0345L7.55654 7.78007ZM6.77455 9.29943L7.16829 8.24948L7.56204 9.29943H6.77455ZM11.5362 7.60863C11.4661 7.60863 11.3989 7.63647 11.3494 7.68601C11.2998 7.73556 11.272 7.80275 11.272 7.87282V10.1272C11.272 10.1973 11.2998 10.2645 11.3494 10.314C11.3989 10.3636 11.4661 10.3914 11.5362 10.3914C11.6063 10.3914 11.6735 10.3636 11.723 10.314C11.7726 10.2645 11.8004 10.1973 11.8004 10.1272V7.87282C11.8004 7.80275 11.7726 7.73556 11.723 7.68601C11.6735 7.63647 11.6063 7.60863 11.5362 7.60863ZM10.8899 3.07517C11.074 3.1339 11.2553 3.2012 11.4331 3.27687C11.4658 3.29083 11.5009 3.29803 11.5364 3.29804C11.5974 3.29809 11.6564 3.27708 11.7037 3.23857C11.7509 3.20005 11.7833 3.1464 11.7955 3.08671C11.8077 3.02701 11.7989 2.96494 11.7706 2.911C11.7422 2.85706 11.6961 2.81457 11.64 2.79073C11.447 2.70858 11.2502 2.63552 11.0503 2.57177C10.9838 2.5514 10.9119 2.55807 10.8503 2.59034C10.7887 2.62262 10.7423 2.67789 10.7212 2.74416C10.7001 2.81043 10.706 2.88235 10.7375 2.94432C10.7691 3.00629 10.8239 3.05331 10.8899 3.07517ZM3.53835 11.9732C3.50479 11.9116 3.44818 11.866 3.38095 11.8462C3.31373 11.8265 3.24141 11.8342 3.1799 11.8678C3.11839 11.9013 3.07273 11.9579 3.05297 12.0252C3.0332 12.0924 3.04095 12.1647 3.07451 12.2262C3.18467 12.428 3.30505 12.6241 3.43518 12.8137C3.45945 12.8491 3.49199 12.878 3.52998 12.898C3.56797 12.918 3.61026 12.9284 3.65318 12.9283C3.70129 12.9283 3.74848 12.9151 3.78965 12.8902C3.83081 12.8653 3.86441 12.8297 3.88679 12.7871C3.90918 12.7445 3.91952 12.6966 3.91669 12.6486C3.91386 12.6006 3.89797 12.5542 3.87073 12.5146C3.75082 12.3399 3.63988 12.1591 3.53835 11.9732ZM8.45894 15.194C7.04328 15.072 5.69951 14.4586 4.6752 13.4666C4.65034 13.4421 4.62089 13.4229 4.58855 13.4099C4.55622 13.3969 4.52163 13.3905 4.48679 13.3909C4.45195 13.3914 4.41755 13.3987 4.38555 13.4125C4.35355 13.4263 4.3246 13.4463 4.30036 13.4713C4.27612 13.4963 4.25707 13.5259 4.24431 13.5583C4.23155 13.5908 4.22533 13.6254 4.226 13.6602C4.22668 13.6951 4.23424 13.7294 4.24825 13.7613C4.26226 13.7932 4.28244 13.822 4.30763 13.8461C5.41898 14.9224 6.87719 15.5881 8.41357 15.7204C8.48337 15.7264 8.5527 15.7045 8.60631 15.6594C8.65992 15.6143 8.69343 15.5497 8.69945 15.4799C8.70546 15.4101 8.68349 15.3408 8.63839 15.2872C8.59329 15.2336 8.52874 15.2001 8.45894 15.194ZM12.8017 3.42696C12.7438 3.38742 12.6726 3.37249 12.6038 3.38543C12.5349 3.39838 12.474 3.43815 12.4345 3.496C12.3949 3.55385 12.38 3.62503 12.3929 3.69389C12.4059 3.76275 12.4457 3.82365 12.5035 3.86319C13.7309 4.702 14.6187 5.9502 15.0035 7.3778C15.0186 7.43387 15.0518 7.48339 15.0979 7.51873C15.1439 7.55407 15.2004 7.57324 15.2584 7.5733C15.299 7.57333 15.339 7.56401 15.3754 7.54606C15.4118 7.52812 15.4436 7.50204 15.4683 7.46984C15.493 7.43763 15.5099 7.40018 15.5178 7.36038C15.5256 7.32057 15.5242 7.27949 15.5137 7.24032C15.0962 5.69112 14.133 4.33686 12.8017 3.42696Z" fill="white"/>
</g>
<defs>
<clipPath id="clip0_6_133">
<rect width="18" height="18" fill="white"/>
</clipPath>
</defs>
</svg>
