<svg width="156" height="27" viewBox="0 0 156 27" fill="none" xmlns="http://www.w3.org/2000/svg">
<path d="M17.8245 9.55973L14.2588 7.30979C14.2309 7.29242 14.2002 7.28583 14.1702 7.27612V6.50013C14.1702 6.29291 13.9989 6.12509 13.7872 6.12509H12.3651L9.3946 4.30718C9.27049 4.23098 9.11265 4.23098 8.98843 4.30718L6.01793 6.12509H4.21282C4.00119 6.12509 3.82979 6.2928 3.82979 6.50013V7.2759C3.79981 7.28562 3.76895 7.29231 3.74117 7.30979L0.175474 9.55973C0.0662437 9.62891 0 9.74763 0 9.87499V19.6249C0 19.8322 0.171286 20 0.383023 20H17.617C17.8286 20 18 19.8323 18 19.6249V9.87509C18 9.74763 17.9338 9.62902 17.8245 9.55973ZM9.19157 5.06752L10.92 6.12509H7.46317L9.19157 5.06752ZM4.59584 6.87507H13.4043V15.3125C13.4043 15.3136 13.4049 15.3145 13.4049 15.3157L12.1094 16.0859L8.99184 14.4209C8.87556 14.3594 8.73414 14.3598 8.61863 14.4246L5.77379 16.0164L4.59529 15.3158C4.59529 15.3147 4.59595 15.3138 4.59595 15.3127L4.59584 6.87507ZM0.766047 10.0794L3.82979 8.14644V14.8607L0.766047 13.0392V10.0794ZM0.766047 13.9163L5.01369 16.4414L0.766047 18.8182V13.9163ZM1.53782 19.2501L8.81306 15.1797L16.4344 19.2501H1.53782ZM17.2341 18.8228L12.8864 16.5009L17.2341 13.9162V18.8228ZM17.2341 13.0392L14.1702 14.8606V8.14644L17.2341 10.0795V13.0392Z" fill="white"/>
<path d="M6.12771 10.6251H10.7234C10.9351 10.6251 11.1065 10.4574 11.1065 10.25V8.00011C11.1065 7.79289 10.9352 7.62506 10.7234 7.62506H6.12771C5.91609 7.62506 5.74469 7.79278 5.74469 8.00011V10.25C5.74469 10.4574 5.91609 10.6251 6.12771 10.6251ZM6.51063 8.37504H10.3404V9.875H6.51063V8.37504Z" fill="white"/>
<path d="M11.8723 11.3751H5.74469V12.1251H11.8723V11.3751Z" fill="white"/>
<path d="M11.8723 12.8751H5.74469V13.6251H11.8723V12.8751Z" fill="white"/>
<path d="M16.0851 6.50015C16.1831 6.50015 16.2811 6.46356 16.3559 6.39028L17.7098 5.06462C17.8594 4.91817 17.8594 4.68084 17.7098 4.53438C17.5602 4.38782 17.3178 4.38793 17.1683 4.53438L15.8144 5.86004C15.6648 6.0065 15.6648 6.24383 15.8144 6.39028C15.8891 6.46356 15.9871 6.50015 16.0851 6.50015Z" fill="white"/>
<path d="M1.64419 6.3903C1.71903 6.46358 1.81702 6.50017 1.91501 6.50017C2.01299 6.50017 2.11098 6.46358 2.18582 6.3903C2.33539 6.24385 2.33539 6.00652 2.18582 5.86006L0.831849 4.5344C0.682277 4.38795 0.439897 4.38795 0.290325 4.5344C0.140753 4.68086 0.140753 4.91819 0.290325 5.06464L1.64419 6.3903Z" fill="white"/>
<path d="M12.8792 4.59838C12.9256 4.61673 12.9739 4.62504 13.0213 4.62504C13.1731 4.62504 13.3171 4.536 13.3769 4.38922L14.1429 2.51422C14.2215 2.322 14.1257 2.10367 13.9294 2.02682C13.7349 1.9503 13.5101 2.0429 13.4316 2.23588L12.6657 4.11088C12.5871 4.3032 12.6828 4.52154 12.8792 4.59838Z" fill="white"/>
<path d="M5.00609 4.38933C5.06594 4.53621 5.20989 4.62515 5.36178 4.62515C5.40928 4.62515 5.45756 4.61673 5.50386 4.59838C5.70016 4.52143 5.79594 4.3032 5.71736 4.11098L4.95142 2.23598C4.87283 2.04301 4.64853 1.9503 4.45365 2.02693C4.25735 2.10388 4.16157 2.32211 4.24015 2.51432L5.00609 4.38933Z" fill="white"/>
<path d="M37.25 20H35.612L29.024 10.01V20H27.386V7.436H29.024L35.612 17.408V7.436H37.25V20ZM49.0423 14.69C49.0423 15.002 49.0243 15.332 48.9883 15.68H41.1043C41.1643 16.652 41.4943 17.414 42.0943 17.966C42.7063 18.506 43.4443 18.776 44.3083 18.776C45.0163 18.776 45.6043 18.614 46.0723 18.29C46.5523 17.954 46.8883 17.51 47.0803 16.958H48.8443C48.5803 17.906 48.0523 18.68 47.2603 19.28C46.4683 19.868 45.4843 20.162 44.3083 20.162C43.3723 20.162 42.5323 19.952 41.7883 19.532C41.0563 19.112 40.4803 18.518 40.0603 17.75C39.6403 16.97 39.4303 16.07 39.4303 15.05C39.4303 14.03 39.6343 13.136 40.0423 12.368C40.4503 11.6 41.0203 11.012 41.7523 10.604C42.4963 10.184 43.3483 9.974 44.3083 9.974C45.2443 9.974 46.0723 10.178 46.7923 10.586C47.5123 10.994 48.0643 11.558 48.4483 12.278C48.8443 12.986 49.0423 13.79 49.0423 14.69ZM47.3503 14.348C47.3503 13.724 47.2123 13.19 46.9363 12.746C46.6603 12.29 46.2823 11.948 45.8023 11.72C45.3343 11.48 44.8123 11.36 44.2363 11.36C43.4083 11.36 42.7003 11.624 42.1123 12.152C41.5363 12.68 41.2063 13.412 41.1223 14.348H47.3503ZM64.3444 10.136L61.2664 20H59.5744L57.1984 12.17L54.8224 20H53.1304L50.0344 10.136H51.7084L53.9764 18.416L56.4244 10.136H58.0984L60.4924 18.434L62.7244 10.136H64.3444ZM69.462 20.162C68.706 20.162 68.028 20.036 67.428 19.784C66.828 19.52 66.354 19.16 66.006 18.704C65.658 18.236 65.466 17.702 65.43 17.102H67.122C67.17 17.594 67.398 17.996 67.806 18.308C68.226 18.62 68.772 18.776 69.444 18.776C70.068 18.776 70.56 18.638 70.92 18.362C71.28 18.086 71.46 17.738 71.46 17.318C71.46 16.886 71.268 16.568 70.884 16.364C70.5 16.148 69.906 15.938 69.102 15.734C68.37 15.542 67.77 15.35 67.302 15.158C66.846 14.954 66.45 14.66 66.114 14.276C65.79 13.88 65.628 13.364 65.628 12.728C65.628 12.224 65.778 11.762 66.078 11.342C66.378 10.922 66.804 10.592 67.356 10.352C67.908 10.1 68.538 9.974 69.246 9.974C70.338 9.974 71.22 10.25 71.892 10.802C72.564 11.354 72.924 12.11 72.972 13.07H71.334C71.298 12.554 71.088 12.14 70.704 11.828C70.332 11.516 69.828 11.36 69.192 11.36C68.604 11.36 68.136 11.486 67.788 11.738C67.44 11.99 67.266 12.32 67.266 12.728C67.266 13.052 67.368 13.322 67.572 13.538C67.788 13.742 68.052 13.91 68.364 14.042C68.688 14.162 69.132 14.3 69.696 14.456C70.404 14.648 70.98 14.84 71.424 15.032C71.868 15.212 72.246 15.488 72.558 15.86C72.882 16.232 73.05 16.718 73.062 17.318C73.062 17.858 72.912 18.344 72.612 18.776C72.312 19.208 71.886 19.55 71.334 19.802C70.794 20.042 70.17 20.162 69.462 20.162ZM77.0123 18.668H81.4043V20H75.3743V7.454H77.0123V18.668ZM92.1438 14.69C92.1438 15.002 92.1258 15.332 92.0898 15.68H84.2058C84.2658 16.652 84.5958 17.414 85.1958 17.966C85.8078 18.506 86.5458 18.776 87.4098 18.776C88.1178 18.776 88.7058 18.614 89.1738 18.29C89.6538 17.954 89.9898 17.51 90.1818 16.958H91.9458C91.6818 17.906 91.1538 18.68 90.3618 19.28C89.5698 19.868 88.5858 20.162 87.4098 20.162C86.4738 20.162 85.6338 19.952 84.8898 19.532C84.1578 19.112 83.5818 18.518 83.1618 17.75C82.7418 16.97 82.5318 16.07 82.5318 15.05C82.5318 14.03 82.7358 13.136 83.1438 12.368C83.5518 11.6 84.1218 11.012 84.8538 10.604C85.5978 10.184 86.4498 9.974 87.4098 9.974C88.3458 9.974 89.1738 10.178 89.8938 10.586C90.6138 10.994 91.1658 11.558 91.5498 12.278C91.9458 12.986 92.1438 13.79 92.1438 14.69ZM90.4518 14.348C90.4518 13.724 90.3138 13.19 90.0378 12.746C89.7618 12.29 89.3838 11.948 88.9038 11.72C88.4358 11.48 87.9138 11.36 87.3378 11.36C86.5098 11.36 85.8018 11.624 85.2138 12.152C84.6378 12.68 84.3078 13.412 84.2238 14.348H90.4518ZM96.3039 11.486V17.3C96.3039 17.78 96.4059 18.122 96.6099 18.326C96.8139 18.518 97.1679 18.614 97.6719 18.614H98.8779V20H97.4019C96.4899 20 95.8059 19.79 95.3499 19.37C94.8939 18.95 94.6659 18.26 94.6659 17.3V11.486H93.3879V10.136H94.6659V7.652H96.3039V10.136H98.8779V11.486H96.3039ZM102.861 11.486V17.3C102.861 17.78 102.963 18.122 103.167 18.326C103.371 18.518 103.725 18.614 104.229 18.614H105.435V20H103.959C103.047 20 102.363 19.79 101.907 19.37C101.451 18.95 101.223 18.26 101.223 17.3V11.486H99.9446V10.136H101.223V7.652H102.861V10.136H105.435V11.486H102.861ZM116.419 14.69C116.419 15.002 116.401 15.332 116.365 15.68H108.481C108.541 16.652 108.871 17.414 109.471 17.966C110.083 18.506 110.821 18.776 111.685 18.776C112.393 18.776 112.981 18.614 113.449 18.29C113.929 17.954 114.265 17.51 114.457 16.958H116.221C115.957 17.906 115.429 18.68 114.637 19.28C113.845 19.868 112.861 20.162 111.685 20.162C110.749 20.162 109.909 19.952 109.165 19.532C108.433 19.112 107.857 18.518 107.437 17.75C107.017 16.97 106.807 16.07 106.807 15.05C106.807 14.03 107.011 13.136 107.419 12.368C107.827 11.6 108.397 11.012 109.129 10.604C109.873 10.184 110.725 9.974 111.685 9.974C112.621 9.974 113.449 10.178 114.169 10.586C114.889 10.994 115.441 11.558 115.825 12.278C116.221 12.986 116.419 13.79 116.419 14.69ZM114.727 14.348C114.727 13.724 114.589 13.19 114.313 12.746C114.037 12.29 113.659 11.948 113.179 11.72C112.711 11.48 112.189 11.36 111.613 11.36C110.785 11.36 110.077 11.624 109.489 12.152C108.913 12.68 108.583 13.412 108.499 14.348H114.727ZM120.219 11.738C120.507 11.174 120.915 10.736 121.443 10.424C121.983 10.112 122.637 9.956 123.405 9.956V11.648H122.973C121.137 11.648 120.219 12.644 120.219 14.636V20H118.581V10.136H120.219V11.738ZM137.511 17.21H132.039L131.031 20H129.303L133.839 7.526H135.729L140.247 20H138.519L137.511 17.21ZM137.043 15.878L134.775 9.542L132.507 15.878H137.043ZM150.612 11.126C150.612 12.17 150.252 13.04 149.532 13.736C148.824 14.42 147.738 14.762 146.274 14.762H143.862V20H142.224V7.454H146.274C147.69 7.454 148.764 7.796 149.496 8.48C150.24 9.164 150.612 10.046 150.612 11.126ZM146.274 13.412C147.186 13.412 147.858 13.214 148.29 12.818C148.722 12.422 148.938 11.858 148.938 11.126C148.938 9.578 148.05 8.804 146.274 8.804H143.862V13.412H146.274ZM154.286 7.454V20H152.648V7.454H154.286Z" fill="white"/>
</svg>
